<svg width="400" height="400" xmlns="http://www.w3.org/2000/svg" xmlns:svg="http://www.w3.org/2000/svg">
    <g>
        <title>Layer 1</title>
        <rect fill="black" stroke-width="25" stroke-dasharray="null" stroke-linejoin="null" stroke-linecap="null" x="0" y="0" width="400" height="400" id="svg_1" stroke="#000000"/>
        <path fill="black" id="svg_7" d="m202.26303,50.32532l31.50929,50.77302l37.03979,55.91623c0,0 32.92375,51.95912 38.06842,72.0042s12.08963,49.05676 -3.85831,84.13586s-42.44143,51.69563 -71.50764,61.71857s-73.56489,6.8563 -104.94608,-19.78238s-35.75343,-48.26708 -38.32615,-54.86068s-5.14467,-28.48549 -5.14467,-28.48549l10.80327,-0.26349c0,0 1.80029,16.08956 5.40164,26.90296s15.69021,30.06802 21.60655,35.87036s25.72259,24.79266 46.81444,29.27676s62.37733,8.57492 90.92883,-14.50386s41.28394,-44.18416 44.49945,-74.9121s-15.30515,-65.01655 -21.09262,-76.22559s-39.35478,-61.32293 -49.38639,-76.48908s-21.73541,-37.58502 -32.53869,-51.03651l0.12887,-20.03875l0,-0.00003z" stroke-miterlimit="10" stroke-width="25" stroke="#ffffff"/>
    </g>
</svg>
